<?xml version="1.0" encoding="UTF-8" standalone="no"?>
<!DOCTYPE svg PUBLIC "-//W3C//DTD SVG 1.1//EN" "http://www.w3.org/Graphics/SVG/1.1/DTD/svg11.dtd">
<svg version="1.1" xmlns="http://www.w3.org/2000/svg" xmlns:xlink="http://www.w3.org/1999/xlink" preserveAspectRatio="xMidYMid meet" viewBox="0 0 640 640" width="1280" height="640"><defs><path d="M412.35 207.42L322.18 207.42L232 207.42L232 118.43L232 29.44L322.18 29.44L412.35 29.44L412.35 118.43L412.35 207.42Z" id="gwp5FSmbh"></path><path d="M627.83 280.99L538.84 280.99L449.85 280.99L449.85 192L449.85 103L538.84 103L627.83 103L627.83 192L627.83 280.99Z" id="b3DwrBTFdz"></path><path d="M196.4 280.99L107.41 280.99L18.42 280.99L18.42 192L18.42 103L107.41 103L196.4 103L196.4 192L196.4 280.99Z" id="d24KuqmIe"></path><path d="M625.93 580L515.58 580L405.24 580L405.24 514.74L405.24 449.48L322.18 449.48L239.12 449.48L239.12 514.74L239.12 580L128.77 580L18.42 580L18.42 470.84L18.42 361.67L64.7 361.67L110.97 361.67L110.97 425.75L110.97 489.82L150.13 489.82L189.28 489.82L189.28 425.75L189.28 361.67L322.18 361.67L455.07 361.67L455.07 425.75L455.07 489.82L494.23 489.82L533.38 489.82L533.38 425.75L533.38 361.67L579.66 361.67L625.93 361.67L625.93 470.84L625.93 580Z" id="b3WDH41cLh"></path></defs><g><g><g><g><use xlink:href="#gwp5FSmbh" opacity="1" fill="#000000" fill-opacity="1"></use></g><g><use xlink:href="#b3DwrBTFdz" opacity="1" fill="#000000" fill-opacity="1"></use></g><g><use xlink:href="#d24KuqmIe" opacity="1" fill="#000000" fill-opacity="1"></use></g><g><use xlink:href="#b3WDH41cLh" opacity="1" fill="#000000" fill-opacity="1"></use></g></g></g></g></svg>